<?xml version="1.0" standalone="no"?>
<!DOCTYPE svg PUBLIC "-//W3C//DTD SVG 20010904//EN"
 "http://www.w3.org/TR/2001/REC-SVG-20010904/DTD/svg10.dtd">
<svg version="1.0" xmlns="http://www.w3.org/2000/svg"
 width="2500.000000pt" height="2500.000000pt" viewBox="0 0 2500.000000 2500.000000"
 preserveAspectRatio="xMidYMid meet">
<metadata>
Created by potrace 1.14, written by Peter Selinger 2001-2017
</metadata>
<g transform="translate(0.000000,2500.000000) scale(0.100000,-0.100000)"
fill="#000000" stroke="none">
<path d="M0 12500 l0 -12500 12500 0 12500 0 0 12500 0 12500 -12500 0 -12500
0 0 -12500z m12354 9398 c9 15 745 15 763 0 9 -7 13 -7 13 1 0 7 4 10 9 7 13
-8 231 -36 299 -39 6 0 12 -4 12 -9 0 -5 4 -7 9 -4 5 3 33 1 62 -4 30 -6 68
-13 84 -15 121 -20 364 -81 525 -132 80 -25 151 -46 158 -46 6 0 12 -5 12 -10
0 -6 3 -8 6 -4 4 3 23 -1 43 -9 20 -9 72 -29 116 -45 84 -31 87 -32 175 -72
30 -13 114 -51 185 -83 72 -32 131 -62 133 -66 2 -4 10 -8 18 -8 8 0 14 -5 14
-12 0 -6 3 -9 6 -5 3 3 22 -4 42 -15 21 -11 62 -34 92 -50 158 -87 230 -131
388 -236 94 -63 172 -118 172 -123 0 -5 5 -9 11 -9 19 0 139 -87 210 -152 10
-10 22 -18 26 -18 3 0 13 -7 22 -15 9 -8 75 -63 146 -122 72 -59 141 -117 155
-130 14 -13 28 -23 32 -23 5 0 8 -7 8 -15 0 -8 4 -15 8 -15 22 0 376 -352 509
-506 10 -12 40 -47 67 -78 27 -31 67 -80 90 -109 22 -29 43 -54 46 -57 4 -3
35 -43 70 -90 36 -47 67 -87 71 -90 19 -15 292 -424 311 -465 6 -14 16 -25 21
-25 6 0 8 -3 5 -6 -4 -3 5 -22 18 -41 13 -20 24 -42 24 -49 0 -8 3 -14 8 -14
4 0 18 -24 32 -53 14 -28 31 -58 38 -65 6 -7 12 -20 12 -28 0 -9 11 -34 24
-57 34 -57 166 -366 166 -386 0 -10 5 -22 10 -27 10 -10 127 -339 134 -378 2
-12 11 -41 20 -66 8 -25 27 -95 41 -155 14 -61 29 -117 32 -125 8 -19 11 -38
15 -75 2 -16 6 -32 9 -35 5 -4 50 -225 55 -270 1 -8 5 -35 9 -60 4 -25 8 -56
10 -70 1 -14 5 -32 8 -40 6 -17 19 -101 22 -145 1 -16 5 -46 8 -65 3 -19 11
-73 17 -120 6 -47 12 -98 15 -115 2 -16 6 -64 10 -105 3 -41 10 -118 15 -170
10 -100 17 -183 25 -277 2 -32 7 -87 10 -123 10 -125 25 -285 30 -310 3 -14 7
-47 9 -75 3 -27 9 -71 14 -97 5 -27 7 -48 4 -48 -2 0 0 -6 6 -12 5 -7 13 -27
16 -43 7 -34 55 -95 74 -95 7 0 12 -4 12 -10 0 -5 14 -17 32 -26 38 -20 86
-17 423 20 127 14 255 28 285 31 30 3 66 7 80 10 14 2 63 7 110 10 47 4 101 8
120 10 255 26 975 26 1165 1 17 -2 59 -7 95 -11 112 -12 244 -34 326 -56 43
-11 86 -22 95 -24 29 -6 174 -58 219 -78 25 -11 48 -20 53 -19 4 1 7 -2 7 -8
0 -5 5 -10 12 -10 6 0 45 -21 87 -47 153 -95 284 -240 351 -387 17 -36 30 -75
30 -86 0 -12 5 -31 11 -43 7 -11 13 -66 14 -122 4 -133 -29 -303 -81 -422 -8
-17 -14 -34 -14 -37 0 -9 -103 -230 -110 -236 -3 -3 -23 -36 -44 -75 -42 -78
-180 -290 -202 -312 -8 -8 -14 -18 -14 -23 0 -5 -6 -15 -13 -22 -7 -7 -24 -29
-37 -48 -13 -19 -27 -37 -30 -40 -3 -3 -37 -45 -75 -95 -85 -110 -94 -121
-124 -154 -13 -14 -35 -41 -49 -60 -15 -18 -38 -46 -53 -62 -14 -16 -53 -59
-85 -95 -191 -217 -447 -474 -889 -891 -8 -7 -18 -13 -24 -13 -6 0 -11 -7 -11
-15 0 -8 -4 -15 -9 -15 -5 0 -31 -21 -58 -47 -27 -27 -69 -65 -93 -85 -25 -20
-62 -52 -82 -70 -21 -18 -49 -42 -63 -53 -14 -11 -47 -40 -74 -65 -26 -25 -68
-61 -92 -80 -24 -19 -55 -44 -69 -57 -48 -43 -78 -68 -110 -93 -18 -14 -53
-42 -79 -64 -56 -46 -73 -60 -136 -111 -28 -21 -52 -42 -55 -45 -3 -3 -34 -28
-70 -55 -144 -108 -261 -215 -312 -283 -58 -78 -84 -147 -106 -277 -13 -78 -6
-323 12 -415 3 -14 10 -52 15 -85 18 -106 52 -258 62 -276 5 -10 9 -29 9 -43
0 -14 5 -28 10 -31 6 -4 8 -10 5 -14 -2 -5 4 -35 14 -67 10 -33 38 -120 61
-194 23 -74 57 -180 77 -234 19 -54 36 -104 37 -110 2 -6 10 -28 19 -50 9 -21
17 -42 17 -47 0 -7 25 -76 61 -164 8 -22 38 -104 65 -180 10 -27 28 -73 41
-102 13 -28 23 -58 23 -65 0 -8 4 -18 8 -23 5 -6 23 -50 41 -100 18 -49 36
-99 41 -110 5 -11 18 -41 29 -67 12 -26 21 -51 21 -55 0 -4 11 -35 24 -68 13
-33 39 -98 56 -145 18 -47 36 -94 41 -105 12 -26 84 -223 111 -300 11 -33 24
-64 29 -70 5 -5 9 -16 9 -25 1 -8 9 -33 20 -55 11 -22 19 -49 20 -60 0 -12 4
-25 9 -30 5 -6 19 -39 31 -75 12 -36 29 -78 38 -95 9 -16 15 -31 13 -33 -2 -2
31 -106 190 -598 11 -33 21 -69 24 -80 3 -10 11 -44 19 -74 42 -158 107 -432
120 -505 2 -16 7 -39 9 -50 4 -18 9 -45 22 -135 5 -31 10 -73 26 -218 15 -141
7 -495 -14 -607 -52 -279 -154 -480 -341 -673 -199 -206 -384 -261 -793 -233
-210 15 -235 17 -288 25 -22 3 -80 10 -130 17 -135 16 -321 45 -475 74 -41 8
-88 16 -105 19 -66 10 -115 18 -220 37 -60 11 -128 22 -150 25 -22 3 -71 12
-110 20 -38 8 -86 16 -105 19 -19 2 -46 6 -60 8 -14 3 -63 10 -110 17 -46 6
-87 13 -90 15 -9 6 -179 20 -225 19 -58 -1 -169 -16 -175 -23 -3 -3 -12 -7
-20 -9 -85 -15 -309 -129 -478 -243 -40 -27 -75 -49 -77 -49 -8 0 -100 -65
-103 -72 -2 -5 -8 -8 -13 -8 -6 0 -44 -22 -86 -50 -42 -27 -80 -50 -84 -50 -5
0 -9 -4 -9 -9 0 -5 -15 -14 -32 -22 -18 -7 -35 -16 -38 -19 -6 -7 -122 -69
-220 -118 -41 -20 -76 -40 -78 -44 -2 -5 -10 -8 -18 -8 -8 0 -37 -11 -64 -25
-27 -14 -58 -25 -68 -25 -10 0 -22 -4 -28 -8 -12 -12 -88 -39 -144 -52 -25 -6
-54 -13 -65 -16 -173 -44 -431 -56 -600 -29 -55 9 -116 18 -135 21 -19 3 -70
16 -113 30 -43 13 -86 24 -95 25 -14 0 -13 2 3 8 16 6 12 9 -20 15 -72 14
-248 77 -370 133 -232 107 -319 143 -333 138 -7 -2 -10 -1 -7 4 7 12 -31 24
-46 15 -8 -5 -9 -3 -4 6 6 10 3 12 -13 8 -12 -4 -20 -2 -17 2 6 9 -55 33 -63
25 -3 -3 1 -5 8 -5 7 0 11 -2 8 -5 -3 -3 -25 2 -49 10 -251 89 -702 136 -1004
104 -148 -16 -178 -19 -184 -23 -4 -3 -27 -7 -51 -11 -25 -3 -63 -11 -85 -17
-22 -6 -44 -11 -50 -12 -99 -21 -156 -36 -290 -78 -88 -27 -176 -54 -195 -60
-19 -6 -41 -15 -47 -20 -7 -6 -13 -8 -13 -5 0 6 -87 -22 -205 -64 -30 -10
-113 -34 -240 -69 -252 -68 -578 -100 -834 -81 -88 7 -171 14 -183 16 -13 2
-48 6 -78 9 -64 6 -205 30 -306 52 -39 8 -77 17 -85 18 -8 2 -21 6 -29 9 -8 3
-46 13 -85 21 -121 29 -216 59 -205 66 6 4 -26 17 -70 29 -44 12 -86 19 -92
15 -7 -5 -8 -3 -3 6 6 10 3 12 -13 8 -12 -4 -20 -3 -18 1 3 4 -34 20 -82 35
-155 50 -412 156 -627 258 -115 55 -218 101 -227 101 -9 1 -15 4 -12 8 2 4
-25 19 -61 33 -68 27 -91 33 -65 16 23 -15 -6 -13 -82 4 -35 8 -94 18 -133 21
-79 7 -305 7 -380 1 -115 -10 -341 -58 -492 -104 -17 -6 -34 -8 -37 -4 -3 3
-6 1 -6 -5 0 -5 -19 -15 -42 -22 -48 -15 -249 -92 -318 -124 -25 -11 -47 -20
-50 -19 -3 0 -16 -6 -30 -14 -124 -68 -462 -169 -705 -210 -116 -19 -317 -27
-393 -14 -91 15 -206 53 -185 61 13 6 10 8 -13 8 -54 1 -190 46 -249 82 -112
67 -191 179 -232 329 -15 53 -18 102 -17 265 1 174 4 219 28 340 97 504 275
1008 836 2355 333 801 496 1220 631 1620 287 849 375 1443 274 1848 -30 120
-110 285 -164 338 -21 21 -118 91 -215 154 -479 312 -728 478 -901 600 -1225
861 -1895 1597 -2071 2276 -27 101 -29 123 -29 294 0 169 2 193 27 280 61 221
167 391 367 590 108 108 149 142 202 168 81 39 221 77 347 94 75 10 90 14 67
20 -17 3 8 5 55 3 53 -2 68 0 40 4 l-45 6 60 8 c271 36 510 41 1245 28 382 -7
795 -11 918 -9 179 2 221 0 217 -10 -3 -7 -1 -10 4 -7 5 3 15 21 21 41 10 29
8 55 -9 147 -42 227 -46 284 -46 617 1 346 8 431 60 717 103 560 336 1140 681
1692 281 449 744 1012 1249 1516 867 867 1756 1444 2695 1750 258 83 618 169
804 191 31 4 56 10 56 13 0 4 19 6 43 4 41 -2 41 -1 7 6 l-35 7 42 5 c23 2 39
1 37 -3 -3 -5 14 -7 38 -7 l43 2 -35 7 c-29 6 -31 8 -10 9 14 2 32 4 40 5 8 2
54 7 102 10 48 4 100 11 115 15 16 4 31 4 34 -2 4 -5 9 -5 13 1z m-447 -54
c-3 -3 -12 -4 -19 -1 -8 3 -5 6 6 6 11 1 17 -2 13 -5z m-64 -11 c-7 -2 -19 -2
-25 0 -7 3 -2 5 12 5 14 0 19 -2 13 -5z m-3913 -17953 c8 -5 11 -10 5 -10 -5
0 -17 5 -25 10 -8 5 -10 10 -5 10 6 0 17 -5 25 -10z m1160 -474 c25 -8 36 -15
25 -15 -21 1 -98 27 -80 28 6 0 30 -6 55 -13z m5107 -212 c-3 -3 -12 -4 -19
-1 -8 3 -5 6 6 6 11 1 17 -2 13 -5z"/>
<path d="M12278 21873 c17 -2 47 -2 65 0 17 2 3 4 -33 4 -36 0 -50 -2 -32 -4z"/>
<path d="M12123 21863 c15 -2 39 -2 55 0 15 2 2 4 -28 4 -30 0 -43 -2 -27 -4z"/>
<path d="M9543 17555 c-98 -18 -164 -40 -258 -88 -106 -55 -234 -181 -288
-284 -71 -137 -66 -57 -78 -1141 -8 -728 -8 -1003 0 -1053 23 -142 96 -324
173 -438 56 -80 170 -191 259 -250 156 -105 318 -154 509 -153 323 1 591 176
748 487 103 207 211 606 264 984 30 213 33 703 5 880 -103 652 -400 992 -926
1060 -111 14 -318 12 -408 -4z m295 -426 c161 -80 262 -279 262 -517 0 -183
-54 -333 -158 -438 -183 -187 -438 -129 -567 127 -52 102 -69 177 -69 309 0
220 81 403 217 493 70 46 100 55 183 56 60 1 80 -4 132 -30z"/>
<path d="M14393 17516 c-99 -19 -165 -42 -253 -87 -140 -72 -248 -183 -316
-326 -32 -67 -37 -88 -44 -187 -5 -61 -11 -525 -15 -1031 l-7 -920 25 -96 c82
-315 257 -539 522 -669 213 -105 445 -124 655 -54 169 56 335 187 435 343 141
218 270 664 332 1146 25 200 25 641 -1 810 -94 615 -360 958 -821 1057 -119
25 -409 33 -512 14z m486 -391 c342 -186 331 -861 -16 -1032 -48 -23 -70 -28
-133 -28 -66 1 -83 5 -138 35 -112 59 -198 179 -239 331 -22 79 -24 270 -4
349 32 130 107 253 191 315 72 53 113 65 205 62 66 -3 90 -8 134 -32z"/>
<path d="M19618 15223 c18 -2 45 -2 60 0 15 2 0 4 -33 4 -33 0 -45 -2 -27 -4z"/>
<path d="M19433 15213 c15 -2 37 -2 50 0 12 2 0 4 -28 4 -27 0 -38 -2 -22 -4z"/>
<path d="M19273 15203 c15 -2 37 -2 50 0 12 2 0 4 -28 4 -27 0 -38 -2 -22 -4z"/>
<path d="M19148 15193 c12 -2 32 -2 45 0 12 2 2 4 -23 4 -25 0 -35 -2 -22 -4z"/>
<path d="M19038 15183 c12 -2 32 -2 45 0 12 2 2 4 -23 4 -25 0 -35 -2 -22 -4z"/>
<path d="M18938 15173 c12 -2 30 -2 40 0 9 3 -1 5 -23 4 -22 0 -30 -2 -17 -4z"/>
<path d="M18838 15163 c12 -2 32 -2 45 0 12 2 2 4 -23 4 -25 0 -35 -2 -22 -4z"/>
<path d="M18748 15153 c12 -2 30 -2 40 0 9 3 -1 5 -23 4 -22 0 -30 -2 -17 -4z"/>
<path d="M4148 15143 c23 -2 59 -2 80 0 20 2 1 4 -43 4 -44 0 -61 -2 -37 -4z"/>
<path d="M18668 15143 c12 -2 30 -2 40 0 9 3 -1 5 -23 4 -22 0 -30 -2 -17 -4z"/>
<path d="M18588 15133 c12 -2 30 -2 40 0 9 3 -1 5 -23 4 -22 0 -30 -2 -17 -4z"/>
<path d="M18528 15123 c7 -3 16 -2 19 1 4 3 -2 6 -13 5 -11 0 -14 -3 -6 -6z"/>
<path d="M8070 13373 c0 -458 74 -894 216 -1283 87 -238 264 -548 424 -746 79
-97 289 -314 304 -314 6 0 106 185 221 411 l210 411 472 -1 c579 -2 822 -15
1025 -57 51 -10 74 -11 99 -2 29 10 34 9 53 -13 12 -13 48 -32 81 -43 372
-116 712 -387 1026 -820 43 -59 79 -117 79 -128 0 -11 -18 -113 -41 -226 -34
-176 -52 -259 -84 -399 -5 -22 -4 -22 82 -17 403 23 658 58 918 124 995 253
1990 947 2839 1979 85 103 106 135 95 142 -18 11 -502 11 -809 -1 -647 -24
-1477 -33 -1985 -21 -1355 31 -2106 114 -2960 327 -698 174 -1501 459 -2119
753 -71 33 -133 61 -138 61 -4 0 -8 -62 -8 -137z"/>
<path d="M8760 8007 c0 -2 15 -16 33 -33 l32 -29 -29 33 c-28 30 -36 37 -36
29z"/>
<path d="M8880 7885 c13 -14 26 -25 28 -25 3 0 -5 11 -18 25 -13 14 -26 25
-28 25 -3 0 5 -11 18 -25z"/>
<path d="M11149 7633 c-13 -16 -12 -17 4 -4 9 7 17 15 17 17 0 8 -8 3 -21 -13z"/>
<path d="M11089 7573 c-13 -16 -12 -17 4 -4 9 7 17 15 17 17 0 8 -8 3 -21 -13z"/>
<path d="M9178 3383 c7 -3 16 -2 19 1 4 3 -2 6 -13 5 -11 0 -14 -3 -6 -6z"/>
<path d="M9218 3373 c7 -3 16 -2 19 1 4 3 -2 6 -13 5 -11 0 -14 -3 -6 -6z"/>
<path d="M9258 3363 c7 -3 16 -2 19 1 4 3 -2 6 -13 5 -11 0 -14 -3 -6 -6z"/>
<path d="M9298 3353 c7 -3 16 -2 19 1 4 3 -2 6 -13 5 -11 0 -14 -3 -6 -6z"/>
<path d="M9348 3343 c7 -3 16 -2 19 1 4 3 -2 6 -13 5 -11 0 -14 -3 -6 -6z"/>
<path d="M9498 3313 c7 -3 16 -2 19 1 4 3 -2 6 -13 5 -11 0 -14 -3 -6 -6z"/>
<path d="M9558 3303 c7 -3 16 -2 19 1 4 3 -2 6 -13 5 -11 0 -14 -3 -6 -6z"/>
<path d="M14258 3183 c6 -2 18 -2 25 0 6 3 1 5 -13 5 -14 0 -19 -2 -12 -5z"/>
<path d="M14308 3173 c6 -2 18 -2 25 0 6 3 1 5 -13 5 -14 0 -19 -2 -12 -5z"/>
<path d="M14378 3163 c6 -2 18 -2 25 0 6 3 1 5 -13 5 -14 0 -19 -2 -12 -5z"/>
</g>
</svg>
